<svg width="56" height="55" viewBox="0 0 56 55" fill="none" xmlns="http://www.w3.org/2000/svg">
<path fill-rule="evenodd" clip-rule="evenodd" d="M7.7041 6.39738C6.75904 6.39738 5.99292 7.1635 5.99292 8.10856C5.99292 9.05362 6.75904 9.81974 7.7041 9.81974H10.5561V44.5353C10.5561 47.8505 14.3627 49.7216 16.9876 47.6967L20.024 45.3543C20.215 45.207 20.478 45.1957 20.6809 45.3261L24.8454 48.0033C26.9122 49.332 29.5644 49.332 31.6312 48.0033L35.7957 45.3261C35.9986 45.1957 36.2616 45.207 36.4525 45.3543L39.4889 47.6967C42.1139 49.7216 45.9205 47.8505 45.9205 44.5353V9.81974H48.7725C49.7175 9.81974 50.4836 9.05362 50.4836 8.10856C50.4836 7.1635 49.7175 6.39738 48.7725 6.39738H7.7041ZM19.6824 21.798C19.6824 20.853 20.4485 20.0868 21.3936 20.0868H28.2383C29.1833 20.0868 29.9495 20.853 29.9495 21.798C29.9495 22.7431 29.1833 23.5092 28.2383 23.5092H21.3936C20.4485 23.5092 19.6824 22.7431 19.6824 21.798ZM21.3936 29.2131C20.4485 29.2131 19.6824 29.9793 19.6824 30.9243C19.6824 31.8694 20.4485 32.6355 21.3936 32.6355H28.2383C29.1833 32.6355 29.9495 31.8694 29.9495 30.9243C29.9495 29.9793 29.1833 29.2131 28.2383 29.2131H21.3936ZM33.3718 21.798C33.3718 20.853 34.1379 20.0868 35.083 20.0868H36.2238C37.1689 20.0868 37.935 20.853 37.935 21.798C37.935 22.7431 37.1689 23.5092 36.2238 23.5092H35.083C34.1379 23.5092 33.3718 22.7431 33.3718 21.798ZM35.083 29.2131C34.1379 29.2131 33.3718 29.9793 33.3718 30.9243C33.3718 31.8694 34.1379 32.6355 35.083 32.6355H36.2238C37.1689 32.6355 37.935 31.8694 37.935 30.9243C37.935 29.9793 37.1689 29.2131 36.2238 29.2131H35.083Z" fill="currentColor"/>
</svg>
