<svg width="46" height="47" viewBox="0 0 46 47" fill="none" xmlns="http://www.w3.org/2000/svg">
<path fill-rule="evenodd" clip-rule="evenodd" d="M21.8176 6.52041L21.6534 6.4588C16.5895 4.55848 10.9448 4.55848 5.8809 6.4588C4.11001 7.12336 2.87549 8.76907 2.87549 10.6765V36.9125C2.87549 39.7821 5.87273 41.4841 8.40346 40.5344C11.8453 39.2428 15.6891 39.2428 19.1309 40.5344L21.8176 41.5427V6.52041ZM24.6589 41.5426L27.3455 40.5344C30.7873 39.2428 34.6311 39.2428 38.0729 40.5344C40.6037 41.4841 43.6009 39.7821 43.6009 36.9125V10.6765C43.6009 8.76907 42.3664 7.12336 40.5955 6.4588C35.5316 4.55848 29.8869 4.55848 24.823 6.4588L24.6589 6.52035V41.5426Z" fill="currentColor"/>
</svg>
