<svg width="40" height="48" viewBox="0 0 40 48" fill="none" xmlns="http://www.w3.org/2000/svg">
<path d="M20.0011 32.6737C9.13531 32.6737 0.334473 37.0741 0.334473 42.507V47.4237H39.6678V42.507C39.6678 37.0741 30.867 32.6737 20.0011 32.6737ZM10.1678 17.9237C10.1678 20.5316 11.2038 23.0328 13.0479 24.8769C14.892 26.721 17.3932 27.757 20.0011 27.757C22.6091 27.757 25.1102 26.721 26.9544 24.8769C28.7985 23.0328 29.8345 20.5316 29.8345 17.9237M18.772 0.715332C18.0345 0.715332 17.5428 1.23158 17.5428 1.9445V9.3195H15.0845V3.17367C15.0845 3.17367 9.55322 5.28783 9.55322 12.3924C9.55322 12.3924 7.70947 12.7366 7.70947 15.4653H32.2928C32.1699 12.7366 30.4491 12.3924 30.4491 12.3924C30.4491 5.28783 24.9178 3.17367 24.9178 3.17367V9.3195H22.4595V1.9445C22.4595 1.23158 21.9924 0.715332 21.2303 0.715332H18.772Z" fill="currentColor"/>
</svg>
