<svg width="33" height="33" viewBox="0 0 33 33" fill="none" xmlns="http://www.w3.org/2000/svg">
<path d="M12.7331 6.99269C12.3795 6.99269 12.0403 7.13316 11.7903 7.38321C11.5402 7.63326 11.3997 7.9724 11.3997 8.32602C11.3997 8.67964 11.5402 9.01878 11.7903 9.26883C12.0403 9.51888 12.3795 9.65935 12.7331 9.65935C13.0867 9.65935 13.4258 9.51888 13.6759 9.26883C13.9259 9.01878 14.0664 8.67964 14.0664 8.32602C14.0664 7.9724 13.9259 7.63326 13.6759 7.38321C13.4258 7.13316 13.0867 6.99269 12.7331 6.99269ZM8.95974 6.99269C9.23521 6.21198 9.74606 5.53593 10.4219 5.05774C11.0977 4.57955 11.9052 4.32275 12.7331 4.32275C13.561 4.32275 14.3685 4.57955 15.0443 5.05774C15.7201 5.53593 16.2309 6.21198 16.5064 6.99269H26.0664C26.42 6.99269 26.7592 7.13316 27.0092 7.38321C27.2593 7.63326 27.3997 7.9724 27.3997 8.32602C27.3997 8.67964 27.2593 9.01878 27.0092 9.26883C26.7592 9.51888 26.42 9.65935 26.0664 9.65935H16.5064C16.2309 10.4401 15.7201 11.1161 15.0443 11.5943C14.3685 12.0725 13.561 12.3293 12.7331 12.3293C11.9052 12.3293 11.0977 12.0725 10.4219 11.5943C9.74606 11.1161 9.23521 10.4401 8.95974 9.65935H7.39974C7.04612 9.65935 6.70698 9.51888 6.45693 9.26883C6.20688 9.01878 6.06641 8.67964 6.06641 8.32602C6.06641 7.9724 6.20688 7.63326 6.45693 7.38321C6.70698 7.13316 7.04612 6.99269 7.39974 6.99269H8.95974ZM20.7331 14.9927C20.3795 14.9927 20.0403 15.1332 19.7903 15.3832C19.5402 15.6333 19.3997 15.9724 19.3997 16.326C19.3997 16.6796 19.5402 17.0188 19.7903 17.2688C20.0403 17.5189 20.3795 17.6594 20.7331 17.6594C21.0867 17.6594 21.4258 17.5189 21.6759 17.2688C21.9259 17.0188 22.0664 16.6796 22.0664 16.326C22.0664 15.9724 21.9259 15.6333 21.6759 15.3832C21.4258 15.1332 21.0867 14.9927 20.7331 14.9927ZM16.9597 14.9927C17.2352 14.212 17.7461 13.5359 18.4219 13.0577C19.0977 12.5795 19.9052 12.3228 20.7331 12.3228C21.561 12.3228 22.3685 12.5795 23.0443 13.0577C23.7201 13.5359 24.2309 14.212 24.5064 14.9927H26.0664C26.42 14.9927 26.7592 15.1332 27.0092 15.3832C27.2593 15.6333 27.3997 15.9724 27.3997 16.326C27.3997 16.6796 27.2593 17.0188 27.0092 17.2688C26.7592 17.5189 26.42 17.6594 26.0664 17.6594H24.5064C24.2309 18.4401 23.7201 19.1161 23.0443 19.5943C22.3685 20.0725 21.561 20.3293 20.7331 20.3293C19.9052 20.3293 19.0977 20.0725 18.4219 19.5943C17.7461 19.1161 17.2352 18.4401 16.9597 17.6594H7.39974C7.04612 17.6594 6.70698 17.5189 6.45693 17.2688C6.20688 17.0188 6.06641 16.6796 6.06641 16.326C6.06641 15.9724 6.20688 15.6333 6.45693 15.3832C6.70698 15.1332 7.04612 14.9927 7.39974 14.9927H16.9597ZM12.7331 22.9927C12.3795 22.9927 12.0403 23.1332 11.7903 23.3832C11.5402 23.6333 11.3997 23.9724 11.3997 24.326C11.3997 24.6796 11.5402 25.0188 11.7903 25.2688C12.0403 25.5189 12.3795 25.6594 12.7331 25.6594C13.0867 25.6594 13.4258 25.5189 13.6759 25.2688C13.9259 25.0188 14.0664 24.6796 14.0664 24.326C14.0664 23.9724 13.9259 23.6333 13.6759 23.3832C13.4258 23.1332 13.0867 22.9927 12.7331 22.9927ZM8.95974 22.9927C9.23521 22.212 9.74606 21.5359 10.4219 21.0577C11.0977 20.5795 11.9052 20.3228 12.7331 20.3228C13.561 20.3228 14.3685 20.5795 15.0443 21.0577C15.7201 21.5359 16.2309 22.212 16.5064 22.9927H26.0664C26.42 22.9927 26.7592 23.1332 27.0092 23.3832C27.2593 23.6333 27.3997 23.9724 27.3997 24.326C27.3997 24.6796 27.2593 25.0188 27.0092 25.2688C26.7592 25.5189 26.42 25.6594 26.0664 25.6594H16.5064C16.2309 26.4401 15.7201 27.1161 15.0443 27.5943C14.3685 28.0725 13.561 28.3293 12.7331 28.3293C11.9052 28.3293 11.0977 28.0725 10.4219 27.5943C9.74606 27.1161 9.23521 26.4401 8.95974 25.6594H7.39974C7.04612 25.6594 6.70698 25.5189 6.45693 25.2688C6.20688 25.0188 6.06641 24.6796 6.06641 24.326C6.06641 23.9724 6.20688 23.6333 6.45693 23.3832C6.70698 23.1332 7.04612 22.9927 7.39974 22.9927H8.95974Z" fill="#B0B0B0"/>
</svg>
