<svg width="32" height="33" viewBox="0 0 32 33" fill="none" xmlns="http://www.w3.org/2000/svg">
<path d="M2 6.68652C2 5.62566 2.42143 4.60824 3.17157 3.8581C3.92172 3.10795 4.93913 2.68652 6 2.68652H26C27.0609 2.68652 28.0783 3.10795 28.8284 3.8581C29.5786 4.60824 30 5.62566 30 6.68652V26.6865C30 27.7474 29.5786 28.7648 28.8284 29.5149C28.0783 30.2651 27.0609 30.6865 26 30.6865H6C4.93913 30.6865 3.92172 30.2651 3.17157 29.5149C2.42143 28.7648 2 27.7474 2 26.6865V6.68652Z" fill="#DDB762"/>
<path d="M18 11.6865L13 16.6865L18 21.6865" stroke="white" stroke-width="2" stroke-linecap="round" stroke-linejoin="round"/>
</svg>
