<svg width="418" height="417" viewBox="0 0 418 417" fill="none" xmlns="http://www.w3.org/2000/svg">
<g filter="url(#filter0_d_1_128)">
<rect x="104.738" y="94.0029" width="124.997" height="124.997" rx="62.4985" fill="white"/>
</g>
<path fill-rule="evenodd" clip-rule="evenodd" d="M144.83 145.809C144.83 139.341 150.073 134.097 156.541 134.097H176.909C183.377 134.097 188.621 139.341 188.621 145.809V166.177C188.621 172.645 183.377 177.888 176.909 177.888H156.541C150.073 177.888 144.83 172.645 144.83 166.177V145.809ZM170.113 145.973C170.988 145.097 172.405 145.096 173.28 145.971L176.762 149.453C177.629 150.32 177.638 151.724 176.782 152.603L174.458 154.987L167.781 148.309L170.113 145.973ZM166.593 149.498L173.286 156.19L164.944 164.749C164.311 165.398 163.444 165.763 162.539 165.763L158.73 165.763C157.775 165.763 157.012 164.967 157.052 164.012L157.215 160.144C157.25 159.303 157.6 158.505 158.195 157.909L166.593 149.498Z" fill="#DDB762"/>
<defs>
<filter id="filter0_d_1_128" x="0.574047" y="0.255116" width="416.657" height="416.657" filterUnits="userSpaceOnUse" color-interpolation-filters="sRGB">
<feFlood flood-opacity="0" result="BackgroundImageFix"/>
<feColorMatrix in="SourceAlpha" type="matrix" values="0 0 0 0 0 0 0 0 0 0 0 0 0 0 0 0 0 0 127 0" result="hardAlpha"/>
<feOffset dx="41.6657" dy="52.0821"/>
<feGaussianBlur stdDeviation="72.915"/>
<feColorMatrix type="matrix" values="0 0 0 0 0.975 0 0 0 0 0.853974 0 0 0 0 0.836685 0 0 0 0.8 0"/>
<feBlend mode="normal" in2="BackgroundImageFix" result="effect1_dropShadow_1_128"/>
<feBlend mode="normal" in="SourceGraphic" in2="effect1_dropShadow_1_128" result="shape"/>
</filter>
</defs>
</svg>
