<svg width="50" height="49" viewBox="0 0 50 49" fill="none" xmlns="http://www.w3.org/2000/svg">
<path fill-rule="evenodd" clip-rule="evenodd" d="M2.82983 13.8088C2.82983 7.34075 8.07325 2.09733 14.5413 2.09733H34.9092C41.3773 2.09733 46.6207 7.34075 46.6207 13.8088V34.1767C46.6207 40.6448 41.3773 45.8882 34.9092 45.8882H14.5413C8.07325 45.8882 2.82983 40.6448 2.82983 34.1767V13.8088ZM28.1135 13.9725C28.9876 13.097 30.4055 13.0965 31.2803 13.9713L34.7618 17.4528C35.6292 18.3202 35.6382 19.7244 34.782 20.6028L32.4585 22.9868L25.7806 16.3089L28.1135 13.9725ZM24.5935 17.4979L31.2857 24.1901L22.9437 32.749C22.3115 33.3977 21.4444 33.7634 20.539 33.7634L16.7299 33.7632C15.7747 33.7632 15.0118 32.9669 15.052 32.0118L15.2147 28.1441C15.25 27.3027 15.5998 26.5052 16.1946 25.9095L24.5935 17.4979Z" fill="currentColor"/>
</svg>
