<svg width="34" height="34" viewBox="0 0 35 34" fill="none" xmlns="http://www.w3.org/2000/svg">
<path fill-rule="evenodd" clip-rule="evenodd" d="M20.684 1.78324C21.9609 0.504455 24.0319 0.50367 25.3097 1.78149L31.0821 7.55386C32.349 8.82078 32.3621 10.8718 31.1116 12.1549L27.2546 16.1121L16.8078 5.66533L20.684 1.78324ZM15.0739 7.40193L25.5416 17.8697L12.3306 31.4243C11.4071 32.3717 10.1406 32.906 8.81816 32.9059L2.53143 32.9056C1.13617 32.9056 0.0219036 31.7425 0.0805851 30.3474L0.348404 23.9802C0.400101 22.7512 0.910909 21.5863 1.77976 20.7162L15.0739 7.40193ZM32.8843 33.9914C33.5617 33.9914 34.1109 33.4418 34.1109 32.7639C34.1109 32.086 33.5617 31.5364 32.8843 31.5364H20.9117C20.2343 31.5364 19.6851 32.086 19.6851 32.7639C19.6851 33.4418 20.2343 33.9914 20.9117 33.9914H32.8843Z" fill="currentColor"/>
</svg>
