<svg width="25" height="24" viewBox="0 0 25 24" fill="none" xmlns="http://www.w3.org/2000/svg">
<g clip-path="url(#clip0_1_374)">
<path d="M16.5552 17.8C16.4502 17.8788 16.3306 17.9361 16.2034 17.9687C16.0762 18.0013 15.9438 18.0085 15.8138 17.9899C15.6838 17.9714 15.5588 17.9274 15.4458 17.8605C15.3328 17.7936 15.234 17.7051 15.1552 17.6C15.0765 17.4949 15.0191 17.3754 14.9865 17.2482C14.9539 17.121 14.9467 16.9886 14.9653 16.8586C14.9839 16.7286 15.0279 16.6035 15.0948 16.4905C15.1617 16.3775 15.2502 16.2788 15.3552 16.2C16.9192 15.027 17.8152 13.886 18.3282 12.89C17.6239 13.0713 16.8805 13.0287 16.2015 12.768C15.5225 12.5074 14.9415 12.0417 14.5394 11.4356C14.1372 10.8296 13.9339 10.1133 13.9576 9.38636C13.9813 8.65942 14.2309 7.95792 14.6717 7.37937C15.1125 6.80082 15.7226 6.37397 16.4171 6.15814C17.1117 5.94231 17.8563 5.94823 18.5473 6.17508C19.2384 6.40192 19.8416 6.83842 20.2731 7.42391C20.7047 8.00939 20.9431 8.71477 20.9552 9.442C21.0834 10.6701 20.909 11.9108 20.4472 13.056C19.8502 14.562 18.6832 16.204 16.5552 17.8ZM7.55525 17.8C7.45019 17.8788 7.33064 17.9361 7.20343 17.9687C7.07621 18.0013 6.94382 18.0085 6.81382 17.9899C6.68382 17.9714 6.55875 17.9274 6.44575 17.8605C6.33275 17.7936 6.23404 17.7051 6.15525 17.6C6.07645 17.4949 6.01912 17.3754 5.98653 17.2482C5.95394 17.121 5.94672 16.9886 5.96529 16.8586C5.98387 16.7286 6.02786 16.6035 6.09477 16.4905C6.16168 16.3775 6.25019 16.2788 6.35524 16.2C7.91924 15.027 8.81524 13.886 9.32825 12.89C8.62387 13.0713 7.88051 13.0287 7.20149 12.768C6.52246 12.5074 5.9415 12.0417 5.53936 11.4356C5.13722 10.8296 4.93388 10.1133 4.9576 9.38636C4.98131 8.65942 5.23091 7.95792 5.6717 7.37937C6.11249 6.80082 6.72258 6.37397 7.41715 6.15814C8.11172 5.94231 8.85628 5.94823 9.54733 6.17508C10.2384 6.40192 10.8416 6.83842 11.2731 7.42391C11.7047 8.00939 11.9431 8.71477 11.9552 9.442C12.0834 10.6701 11.909 11.9108 11.4472 13.056C10.8492 14.562 9.68325 16.204 7.55525 17.8Z" fill="black"/>
</g>
<defs>
<clipPath id="clip0_1_374">
<rect width="24" height="24" fill="white" transform="matrix(-1 0 0 -1 24.957 24)"/>
</clipPath>
</defs>
</svg>
