<svg width="33" height="33" viewBox="0 0 33 33" fill="none" xmlns="http://www.w3.org/2000/svg">
<path d="M30.5918 26.6865C30.5918 27.7474 30.1704 28.7648 29.4202 29.515C28.6701 30.2651 27.6527 30.6865 26.5918 30.6865H6.5918C5.53093 30.6865 4.51352 30.2651 3.76337 29.515C3.01323 28.7648 2.5918 27.7474 2.5918 26.6865V6.68652C2.5918 5.62566 3.01323 4.60824 3.76337 3.8581C4.51352 3.10795 5.53093 2.68652 6.5918 2.68652H26.5918C27.6527 2.68652 28.6701 3.10795 29.4202 3.8581C30.1704 4.60824 30.5918 5.62566 30.5918 6.68652V26.6865Z" fill="#DDB762"/>
<path d="M14.5918 21.6865L19.5918 16.6865L14.5918 11.6865" stroke="white" stroke-width="2" stroke-linecap="round" stroke-linejoin="round"/>
</svg>
