<svg width="20" height="20" viewBox="0 0 20 20" fill="none" xmlns="http://www.w3.org/2000/svg">
<path d="M8.61492 5.56919C9.25343 3.97741 9.57268 3.18152 10.1217 3.18152C10.6707 3.18152 10.9899 3.97741 11.6284 5.56919L11.6581 5.64331C12.0189 6.54259 12.1992 6.99223 12.5668 7.26552C12.9344 7.53882 13.4169 7.58203 14.382 7.66846L14.5565 7.68409C16.1359 7.82554 16.9256 7.89627 17.0946 8.39871C17.2636 8.90115 16.6771 9.43473 15.5041 10.5019L15.1127 10.858C14.5189 11.3983 14.222 11.6684 14.0836 12.0224C14.0578 12.0884 14.0364 12.1561 14.0194 12.2249C13.9284 12.594 14.0154 12.9858 14.1892 13.7695L14.2434 14.0134C14.5629 15.4537 14.7227 16.1738 14.4437 16.4845C14.3395 16.6005 14.204 16.6841 14.0535 16.7252C13.6507 16.8351 13.0789 16.3691 11.9352 15.4372C11.1842 14.8252 10.8087 14.5193 10.3776 14.4504C10.2081 14.4233 10.0353 14.4233 9.86569 14.4504C9.43459 14.5193 9.0591 14.8252 8.30812 15.4372C7.16444 16.3691 6.59261 16.8351 6.18983 16.7252C6.03932 16.6841 5.90384 16.6005 5.7996 16.4845C5.52063 16.1738 5.6804 15.4537 5.99995 14.0134L6.05408 13.7695C6.22795 12.9858 6.31489 12.594 6.22394 12.2249C6.20697 12.1561 6.18551 12.0884 6.1597 12.0224C6.02132 11.6684 5.72443 11.3983 5.13065 10.858L4.73918 10.5019C3.56621 9.43473 2.97972 8.90115 3.14871 8.39871C3.31769 7.89627 4.10742 7.82554 5.68687 7.68409L5.86134 7.66846C6.8264 7.58203 7.30894 7.53882 7.67652 7.26552C8.04411 6.99223 8.22447 6.54259 8.58519 5.64331L8.61492 5.56919Z" fill="#E2A03F" stroke="#E2A03F" stroke-width="0.811719"/>
</svg>
