<svg width="25" height="25" viewBox="0 0 25 25" fill="none" xmlns="http://www.w3.org/2000/svg">
<path d="M10.4168 2.20595C9.73824 1.98649 9.00371 2.01592 8.34491 2.28897C7.68611 2.56202 7.14612 3.06083 6.82178 3.69595L6.01578 5.27195C5.92 5.45958 5.76741 5.61217 5.57978 5.70795L4.00278 6.51395C3.36766 6.83829 2.86885 7.37828 2.5958 8.03708C2.32274 8.69589 2.29331 9.43041 2.51278 10.109L3.05878 11.794C3.1236 11.9942 3.1236 12.2097 3.05878 12.41L2.51378 14.095C2.29431 14.7735 2.32374 15.508 2.5968 16.1668C2.86985 16.8256 3.36866 17.3656 4.00378 17.6899L5.57978 18.4959C5.76741 18.5917 5.92 18.7443 6.01578 18.9319L6.82178 20.5089C7.14612 21.1441 7.68611 21.6429 8.34491 21.9159C9.00371 22.189 9.73824 22.2184 10.4168 21.9989L12.1018 21.4529C12.302 21.3881 12.5176 21.3881 12.7178 21.4529L14.4028 21.9979C15.0812 22.2175 15.8156 22.1882 16.4744 21.9153C17.1332 21.6425 17.6733 21.1439 17.9978 20.5089L18.8038 18.9319C18.8996 18.7443 19.0521 18.5917 19.2398 18.4959L20.8168 17.691C21.4521 17.3666 21.9511 16.8264 22.2242 16.1674C22.4972 15.5084 22.5265 14.7736 22.3068 14.095L21.7608 12.41C21.696 12.2097 21.696 11.9942 21.7608 11.794L22.3058 10.109C22.5253 9.43053 22.496 8.69609 22.2232 8.0373C21.9503 7.37851 21.4517 6.83846 20.8168 6.51395L19.2398 5.70795C19.0521 5.61217 18.8996 5.45958 18.8038 5.27195L17.9988 3.69495C17.6744 3.05961 17.1343 2.56064 16.4752 2.28758C15.8162 2.01451 15.0814 1.98522 14.4028 2.20495L12.7178 2.75095C12.5176 2.81577 12.302 2.81577 12.1018 2.75095L10.4168 2.20595ZM7.16978 11.859L8.58378 10.445L11.4118 13.274L17.0688 7.61695L18.4838 9.03095L11.4118 16.101L7.16978 11.859Z" fill="#1D9BF0"/>
</svg>
